<svg version="1" xmlns="http://www.w3.org/2000/svg" width="682.667" height="682.667" viewBox="0 0 512.000000 512.000000"><path d="M234.5 22.7c-33.2 4.1-59.5 11.9-85.3 25.4-63 32.8-107.7 92.6-121.1 162.2-2.5 13.1-4.3 30.6-3.9 38l.3 5.7 13.5-8.8c7.4-4.8 59.5-38.2 115.8-74.1L256 105.8l103.5 66.1C479.9 248.8 488 254.1 488 255c0 1-21.4 14.8-184.8 118.8L256 403.9l-43.5-27.7c-23.9-15.2-68.3-43.6-98.7-62.9-30.4-19.4-62.9-40.2-72.3-46.3l-17-11-.3 5.8c-.9 14.7 4.3 44.8 11.5 66.2 11.5 34.9 30.2 65 56.8 91.5 36.1 36.1 79.8 58.1 130 65.6 16.6 2.4 50.2 2.6 66.3.4 38.5-5.4 75.9-20.8 107.6-44.3 11.8-8.8 32-28.2 41.3-39.7 36.9-45.6 56-106.5 51.3-163.5-3.5-42.3-15.8-78.4-38.5-112.5-38-57.2-100.3-95-168.7-102.4-9-1-40.5-1.3-47.3-.4z"/><path d="M236 158.5c-28.3 6.3-53.7 25.3-66.6 49.8l-3.7 7 2.9-.7c6-1.4 44.1-1.9 55.5-.7 14.8 1.5 33.1 5.3 46.6 9.6 12.6 4 12.7 4 12.1 1.7-.2-.9.3-2.4 1.3-3.3 1.5-1.5 1.8-1.5 3 0 .8.9 1.3 2.6 1.1 3.7-.2 1.7-.8 2.1-2.5 1.7-4.1-1-.4 1.3 6.8 4.2 16.8 6.8 39.8 20.2 54.1 31.6 3.4 2.7 6.5 4.9 6.9 4.9.4 0 .5-7.1.2-15.8-.6-18.5-2.2-25.4-9.7-40.7-12-24.6-35.1-43.8-62-51.6-9.8-2.8-36-3.6-46-1.4z"/><path d="M204 219.6c0 3.8.2 4.2 3.1 4.8 4.2.8 4.9.8 4.9-.4 0-.6-1.6-1-3.6-1-4.1 0-4.3-2-.3-3.1 2.4-.7 2.4-.7-.3-.8-4.1-.1-3.4-1.9 1-2.3l3.7-.3-4.2-.5-4.3-.6v4.2zM180.1 220.7c.1 2.7.3 4.1.6 3.1.8-3.1 5.3-3.4 5.3-.2 0 .8.3 1.4.8 1.4.6 0 .7-3.2.3-7.8-.1-.7-1.5-1.2-3.6-1.2H180l.1 4.7zm5.7-2c.2.8-.6 1.3-2.2 1.3-2.5 0-3.3-1-1.9-2.4 1-1 3.6-.3 4.1 1.1zM192 220c0 3.9.1 4 3.4 4 2.6 0 3.6-.5 4.1-2 1.2-3.8-.3-6-4.1-6-3.3 0-3.4.1-3.4 4zm6-1.5c1.6 1.9-.3 4.5-3.1 4.5-1.4 0-1.9-.7-1.9-3s.5-3 1.9-3c1 0 2.4.7 3.1 1.5zM216.1 220.7c.1 3.7.3 4.2.8 2.3l.7-2.5.8 2.2c.4 1.3 1.1 2.3 1.6 2.3.4 0 1.1-1 1.5-2.3.7-2.1.8-2.1 1.5.8.7 2.7.8 2.5.9-1.8.1-4.8-1.2-6.3-2.4-2.7-.9 2.8-2.5 2.5-2.5-.5 0-1.6-.6-2.5-1.5-2.5-1.1 0-1.5 1.2-1.4 4.7zM169.2 218.2c-.7.7-1.2 2.5-1.2 4 0 2.2.6 2.9 2.7 3.4 4.3 1.1 6.9-3.8 3.7-7-1.9-1.9-3.6-2-5.2-.4zm4.6 3.2c.2 1-.1 2.3-.7 2.9-1.5 1.5-4.6-1.6-3.7-3.8.8-2.1 4-1.5 4.4.9zM235.7 222.7c-.7 4.1.3 5.3 4.3 5.2l2.5-.1-2.7-1c-3.4-1.2-3.6-2.8-.5-2.9 2.1 0 2.1-.1-.3-1.1l-2.5-1.1 3.5-.7c2.1-.5 2.6-.8 1.3-.9-1.2 0-2.8-.3-3.6-.7-1-.4-1.6.5-2 3.3zM254.1 225.7c-1.4 5-1.3 6.2.3 4.1.8-1.1 2.4-1.6 4.2-1.5 2.3.2 3-.2 3.2-2 .3-1.7-.3-2.6-2.3-3.3-3.9-1.5-4.3-1.3-5.4 2.7zm5.3-1.1c2 .8 1.1 2.4-1.5 2.4-1 0-1.9-.7-1.9-1.5 0-1.6.9-1.9 3.4-.9zM265.6 229.6c-1.5 4.5-1.2 5.6.8 2.8 1.6-2.1 4.9-.8 4.3 1.7-.3 1.1-.1 1.9.4 1.9s.9-.7.9-1.5.5-2.4 1.2-3.4c1.5-2.4-.1-4.7-3.7-5.3-2.1-.4-2.6.1-3.9 3.8zm4.8-2c2.2.9 2 2.4-.3 2.4-2.1 0-3.4-1.3-2.4-2.4.8-.7.8-.7 2.7 0zM179.4 228c-5 .5-11.3 1.3-14 1.7l-4.9.8-1.3 6c-2 9.4-1 35.1 1.7 44.5 7.8 26.9 27 50 51.6 62 16.5 8.1 22.9 9.5 43.5 9.5s27-1.4 43.5-9.5c21.5-10.5 38.2-28.3 47.5-50.8l3.2-7.5-2.9-2.4c-34.4-28.9-72.3-46.4-114.3-52.7-12.8-2-41.2-2.8-53.6-1.6zm.6 11c-.7.4-1 1.2-.6 1.8.4.7-.5 1-2.4 1-1.7-.1-3-.6-3-1.4 0-.7-.2-1.8-.5-2.6-.3-.7.5-1.7 1.7-2.3 1.8-.8 2.7-.6 4.2.9 1.4 1.4 1.5 2 .6 2.6zm99.5 13.3c1.3 1 1.5 1.6.6 2.1-.6.4-.9 1.2-.6 1.7 1.1 1.7-3.8.9-5-.8-1.1-1.4-1-2 .4-3 2.1-1.6 2.3-1.6 4.6 0zm-56.5 4.9c0 .4-.4.9-1 1.3-.5.3-.7 1.1-.4 1.9.3.9-.5 1.3-2.6 1.3-2.2 0-3-.5-3-1.9 0-1-.5-1.8-1.1-1.8-.6 0-.1-.8 1.1-1.8 1.9-1.5 2.8-1.7 4.6-.8 1.3.6 2.4 1.4 2.4 1.8zm35 9c0 .4-.4.9-1 1.3-.5.3-.7 1.1-.4 1.9.3.9-.5 1.3-2.5 1.3-2.3 0-3.1-.5-3.3-2.1-.6-3.2 2.1-5.4 4.9-4.2 1.3.6 2.3 1.4 2.3 1.8zm-61 5.9c0 1.2-2.9 2.4-3.7 1.6-.3-.4-.3-1.3 0-2.1.6-1.6 3.7-1.1 3.7.5zm-8.9 3.9c1 0 1 .3.2 1.1-.6.6-.9 1.7-.7 2.4.3.8-.6 1.4-2.5 1.7-2.4.3-3.1.1-3.1-1.2 0-.9-.5-2.1-1.2-2.8-.9-.9-.8-1.2.5-1.2 1 0 2-.7 2.4-1.6.6-1.6.7-1.6 1.8 0 .7.9 1.8 1.6 2.6 1.6zm59.2 1.1c-.3 1.1-1.2 1.5-2.4 1.2-2.1-.6-2.5-2.3-.8-4 1.5-1.5 3.8.5 3.2 2.8zm17.7 1c0 1.9-1.9 2.2-3.2.4-.9-1.2 1.1-3.7 2.3-2.9.5.3.9 1.4.9 2.5zm-58.7 8c-.3 1.1-1.2 1.5-2.4 1.2-2.1-.6-2.5-2.3-.8-4 1.5-1.5 3.8.5 3.2 2.8zM174 286c0 2.5-3.7 3.3-4.3 1-.3-1 0-2.3.5-2.8 1.5-1.5 3.8-.3 3.8 1.8zm79.4-2.4c1.7.7 1 3.4-.9 3.4-1.4 0-2.7-2.5-1.8-3.4.8-.7.8-.7 2.7 0zm80.6 1.3c0 1.1-1.7 3.3-2.5 3.3-1.5 0-2.4-2.6-1.4-3.9 1-1.1 3.9-.8 3.9.6zm-11.8 3.3c-.6 2.4-3.4 2.3-5-.2-1-1.7-1-2 .3-2 .8 0 1.5-.5 1.5-1 0-.6.7-.6 1.9.1 1.1.7 1.6 1.9 1.3 3.1zm.8 6.9c0 1.9-1.9 2.2-3.2.4-.9-1.2 1.1-3.7 2.3-2.9.5.3.9 1.4.9 2.5zm-120-.2c0 1.1-1.7 3.3-2.5 3.3-1.6 0-2.8-3.4-1.5-4.2 1.4-.8 4-.3 4 .9zm56.2 3.6c-.6 3.1-5.4 3-6.9-.2-.9-1.8-.8-2.3.3-2.3.8 0 1.7-.7 2-1.5.9-2.4 5.2 1.3 4.6 4zm59.6 2.3c1.7 1.1.6 3.9-1.8 4.5-2.2.6-3.2-2.1-1.5-4 1.2-1.5 1.6-1.5 3.3-.5zm-97.5 2.6c1.1.9 1.4 1.7.8 2-.6.4-.8 1.2-.5 1.9.8 2.3-4.2 1.3-5.3-1.1-.9-1.7-.8-2.2.3-2.2.8 0 1.4-.5 1.4-1 0-1.4 1.1-1.2 3.3.4zm70 1.2c-.3.8-1.1 1.4-1.8 1.4-1.7 0-2.7-2.8-1.2-3.3 2-.7 3.6.4 3 1.9zm-14.9.9c-.9 2.2-3.2 2.5-3.7.5s.9-3 3-2.3c.6.3.9 1.1.7 1.8zm26.9-1.9c.3.3.3 1.2 0 1.9-.6 1.7-3.3.8-3.3-1.1 0-1.4 2.1-1.9 3.3-.8zm8 2c-.7 1.8-3.3 1.8-3.3.1 0-1.9 1-2.7 2.5-2 .8.2 1.1 1.1.8 1.9zm-7.3 7.9c0 .2-.7 1.1-1.6 2-1.3 1.3-1.9 1.4-2.5.4-1-1.7.8-3.9 2.7-3.2.8.3 1.4.7 1.4.8zm-18.5 8.3c-.3.8-.5 1.7-.5 2.2 0 .4-1.1.7-2.5.7s-2.5-.3-2.5-.7c0-.5-.3-1.5-.6-2.4-.4-1.1-.1-1.6 1-1.6.9 0 1.6-.5 1.6-1 0-.6.8-.5 2 .2 1.1.7 1.8 1.9 1.5 2.6zm16.9 0c.6 1-.5 2.6-2.1 2.9-.9.2-1.1-1.2-.4-3.5.2-.5 2-.1 2.5.6zm-46.1 4.8c-.3.8-.9 1.4-1.3 1.4-1.3 0-2.2-1.9-1.5-3 .9-1.4 3.4 0 2.8 1.6zM278 231.4c-2.8 3.5 1.1 9.3 4.8 7 3.5-2.2 2.2-8.4-1.8-8.4-1 0-2.3.7-3 1.4zm5.4 2.1c.3.8-.2 2.2-1.1 3-1.4 1.4-1.8 1.4-3 .2-.7-.7-1.1-2.1-.7-3 .8-2.1 4-2.2 4.8-.2zM289.1 236.4c-1.9 2.2-.9 4.9 2.3 6.5 2.4 1.1 3 1.1 3.7 0 .5-.8.9-1.7.9-2.2 0-1.2-2.8-.8-3.2.5-.6 1.8-2.8 0-2.8-2.3 0-2.5 2.6-3.5 4.7-1.8 1.4 1.2 1.6 1.2 1.1-.1-.6-2-5.2-2.4-6.7-.6zM300 242.2c-2.4 3.9-2.6 5.5-.5 3.8 2.1-1.7 4.8-.4 4.2 2-.3 1.1-.1 2 .4 2s.9-.6.9-1.4c0-.7.7-1.9 1.5-2.6 2.3-1.9 1.8-4.5-1-5.8-3.4-1.6-3.3-1.7-5.5 2zm5.1-.1c1.1.5 1.7 1.4 1.4 2-.7 1.1-4.5-.7-4.5-2.1 0-1.3.7-1.3 3.1.1zM310.3 247.9l-2.3 3.9 3.4 2c1.9 1.1 3.7 1.8 4 1.5.3-.4-.8-1.5-2.5-2.5-3.2-2-3.2-4.6.1-2.8 1 .5 2.5 1 3.2 1 .7-.1 0-.8-1.5-1.6-3.7-2-2.4-3.8 1.4-1.9 1.6.9 2.9 1.2 2.9.7s-1.2-1.5-2.7-2.3c-1.6-.7-3-1.5-3.3-1.6-.3-.2-1.5 1.5-2.7 3.6zM322.4 252.5c-.4.8.1 2.6 1 4 1.4 2.1 1.4 2.5.2 2.5-.8 0-2-.8-2.5-1.8-1-1.6-1-1.6-1.1 0 0 1.7 2.8 3.8 5 3.8 2 0 2.3-3 .5-5-1-1.1-1.5-2.3-1.1-2.8.4-.4 1.4.2 2.2 1.2.7 1.1 1.7 1.6 2.1 1.2.8-.8-3.2-4.6-4.8-4.6-.5 0-1.2.7-1.5 1.5zM332.3 259.5c-.3.9.2 2.4 1.1 3.4 2 2.2 2 3.1.1 3.1-.9 0-2-1-2.5-2.3l-.9-2.2v2.2c-.1 2.1 2.4 4.3 4.9 4.3 2 0 2.3-3 .5-5-1-1.1-1.5-2.3-1.1-2.8.4-.4 1.4.2 2.2 1.2.7 1.1 1.7 1.7 2.1 1.3.9-.9-2.7-4.7-4.4-4.7-.7 0-1.6.7-2 1.5zM341 268c-2.2 4.2 1.1 8.1 5.1 5.9 1.5-.8 1.9-1.9 1.7-4.2-.2-2.6-.8-3.3-3-3.5-1.9-.2-3 .3-3.8 1.8zm5.5 0c1.1 1.7-.5 5-2.5 5-2.2 0-3-1.9-1.8-4.3 1-1.9 3.3-2.3 4.3-.7z"/></svg>